<svg width="240" height="240" viewBox="0 0 240 240" fill="none" xmlns="http://www.w3.org/2000/svg">
<g id="Group 1707477799">
<g id="Group 1707477798">
<g id="Vector" filter="url(#filter0_d_0_711)">
<path d="M132.5 138H107.5C103.358 138 100 134.642 100 130.5V105.5C100 101.358 103.358 98 107.5 98H132.5C136.642 98 140 101.358 140 105.5V130.5C140 134.642 136.642 138 132.5 138Z" fill="white"/>
</g>
<g id="&#240;&#159;&#166;&#134; icon &#34;book&#34;">
<g id="Group">
<path id="Vector_2" d="M113.558 123.023C113.253 123.023 113 122.77 113 122.465V114.279C113 110.997 113.997 110 117.279 110H122.488C125.77 110 126.767 110.997 126.767 114.279V121.721C126.767 121.84 126.767 121.952 126.76 122.071C126.738 122.376 126.462 122.614 126.165 122.592C125.86 122.569 125.621 122.301 125.644 121.996C125.651 121.907 125.651 121.81 125.651 121.721V114.279C125.651 111.622 125.153 111.116 122.488 111.116H117.279C114.615 111.116 114.116 111.622 114.116 114.279V122.465C114.116 122.77 113.863 123.023 113.558 123.023Z" fill="#FA541C"/>
<path id="Vector_3" d="M123.605 126H116.163C114.421 126 113 124.579 113 122.837V122.354C113 120.873 114.206 119.675 115.679 119.675H126.209C126.514 119.675 126.767 119.928 126.767 120.233V122.837C126.767 124.579 125.346 126 123.605 126ZM115.679 120.791C114.816 120.791 114.116 121.49 114.116 122.354V122.837C114.116 123.969 115.032 124.884 116.163 124.884H123.605C124.736 124.884 125.651 123.969 125.651 122.837V120.791H115.679Z" fill="#FA541C"/>
<path id="Vector_4" d="M122.86 114.837H116.907C116.602 114.837 116.349 114.584 116.349 114.279C116.349 113.974 116.602 113.721 116.907 113.721H122.86C123.165 113.721 123.418 113.974 123.418 114.279C123.418 114.584 123.165 114.837 122.86 114.837Z" fill="#FA541C"/>
<path id="Vector_5" d="M120.628 117.442H116.907C116.602 117.442 116.349 117.189 116.349 116.884C116.349 116.578 116.602 116.325 116.907 116.325H120.628C120.933 116.325 121.186 116.578 121.186 116.884C121.186 117.189 120.933 117.442 120.628 117.442Z" fill="#FA541C"/>
</g>
</g>
</g>
</g>
<defs>
<filter id="filter0_d_0_711" x="0" y="0" width="240" height="240" filterUnits="userSpaceOnUse" color-interpolation-filters="sRGB">
<feFlood flood-opacity="0" result="BackgroundImageFix"/>
<feColorMatrix in="SourceAlpha" type="matrix" values="0 0 0 0 0 0 0 0 0 0 0 0 0 0 0 0 0 0 127 0" result="hardAlpha"/>
<feOffset dy="2"/>
<feGaussianBlur stdDeviation="50"/>
<feComposite in2="hardAlpha" operator="out"/>
<feColorMatrix type="matrix" values="0 0 0 0 0 0 0 0 0 0 0 0 0 0 0 0 0 0 0.1 0"/>
<feBlend mode="normal" in2="BackgroundImageFix" result="effect1_dropShadow_0_711"/>
<feBlend mode="normal" in="SourceGraphic" in2="effect1_dropShadow_0_711" result="shape"/>
</filter>
</defs>
</svg>
