   <svg
            xmlns="http://www.w3.org/2000/svg"
            width="33"
            height="32"
            viewBox="0 0 33 32"
            fill="none"
          >
            <path
              fill-rule="evenodd"
              clip-rule="evenodd"
              d="M26.5685 10.9521L24.0085 20.3388C23.9611 20.513 23.8093 20.6384 23.6294 20.6522L13.6645 21.4187L13.1934 22.3601H22.7435C22.9791 22.3601 23.1702 22.5512 23.1702 22.7868C23.1702 23.0225 22.9791 23.2135 22.7435 23.2135H12.5034C12.3555 23.2135 12.2182 23.137 12.1404 23.0112C12.0626 22.8854 12.0556 22.7283 12.1217 22.596L12.6721 21.4952L12.5356 21.5056L12.5034 21.5068C12.3075 21.5069 12.1366 21.3736 12.0892 21.1835L8.84504 8.16336C8.79305 7.9796 8.62513 7.8529 8.43416 7.85334H5.67667C5.44103 7.85334 5.25 7.66231 5.25 7.42667C5.25 7.19103 5.44103 7 5.67667 7H8.43416C9.01369 7.00089 9.52074 7.39002 9.6715 7.9496L10.2874 10.4213C10.3146 10.4161 10.3423 10.4134 10.37 10.4134H26.1569C26.2898 10.4134 26.4151 10.4754 26.4958 10.581C26.5766 10.6866 26.6034 10.8238 26.5685 10.9521ZM14.6368 15.9601C14.6368 15.7244 14.8278 15.5334 15.0635 15.5334H17.1968V13.4C17.1968 13.1644 17.3878 12.9734 17.6235 12.9734C17.8591 12.9734 18.0502 13.1644 18.0502 13.4V15.5334H20.1835C20.4192 15.5334 20.6102 15.7244 20.6102 15.9601C20.6102 16.1957 20.4192 16.3867 20.1835 16.3867H18.0502V18.5201C18.0502 18.7557 17.8591 18.9467 17.6235 18.9467C17.3878 18.9467 17.1968 18.7557 17.1968 18.5201V16.3867H15.0635C14.8278 16.3867 14.6368 16.1957 14.6368 15.9601ZM10.4973 11.2667H25.5982L23.2638 19.8243L12.8298 20.6272L10.4973 11.2667ZM13.7834 24.0668C13.3122 24.0668 12.9301 24.4489 12.9301 24.9202C12.9301 25.3915 13.3122 25.7735 13.7834 25.7735C14.2547 25.7735 14.6368 25.3915 14.6368 24.9202C14.6368 24.4489 14.2547 24.0668 13.7834 24.0668ZM20.6102 24.9202C20.6102 24.4489 20.9923 24.0668 21.4635 24.0668C21.9348 24.0668 22.3169 24.4489 22.3169 24.9202C22.3169 25.3915 21.9348 25.7735 21.4635 25.7735C20.9923 25.7735 20.6102 25.3915 20.6102 24.9202Z"
              fill="#FA541C"
            />
          </svg>